<svg xmlns="http://www.w3.org/2000/svg" version="1.1" xmlns:xlink="http://www.w3.org/1999/xlink" xmlns:svgjs="http://svgjs.dev/svgjs" width="1500" height="890" viewBox="0 0 1500 890"><g transform="matrix(1,0,0,1,-0.9090909090909918,0.3965773236493533)"><svg viewBox="0 0 396 235" data-background-color="#ffffff" preserveAspectRatio="xMidYMid meet" height="890" width="1500" xmlns="http://www.w3.org/2000/svg" xmlns:xlink="http://www.w3.org/1999/xlink"><g id="tight-bounds" transform="matrix(1,0,0,1,0.2400000000000091,0.4262736266782383)"><svg viewBox="0 0 395.52 234.1664233742069" height="234.1664233742069" width="395.52"><g><svg viewBox="0 0 397.4975999999999 235.33725549107788" height="234.1664233742069" width="395.52"><g><rect width="397.4975999999999" height="6.731992410398165" x="0" y="120.78898533172057" fill="#000000" opacity="1" stroke-width="0" stroke="transparent" fill-opacity="1" class="rect-yte-0" data-fill-palette-color="primary" rx="1%" id="yte-0" data-palette-color="#000000"></rect></g><g><rect width="397.4975999999999" height="6.731992410398165" x="0" y="136.33248613269225" fill="#000000" opacity="1" stroke-width="0" stroke="transparent" fill-opacity="1" class="rect-yte-1" data-fill-palette-color="primary" rx="1%" id="yte-1" data-palette-color="#000000"></rect></g><g transform="matrix(1,0,0,1,0.9887999999999693,160.68749532423743)"><svg viewBox="0 0 395.52 74.64976016684047" height="74.64976016684047" width="395.52"><g id="textblocktransform"><svg viewBox="0 0 395.52 74.64976016684047" height="74.64976016684047" width="395.52" id="textblock"><g><svg viewBox="0 0 395.52 74.64976016684047" height="74.64976016684047" width="395.52"><g transform="matrix(1,0,0,1,0,0)"><svg width="395.52" viewBox="1.5 -35.6 191.79 36.2" height="74.64976016684047" data-palette-color="#000000"><path d="M13.2 0.6L13.2 0.6Q9.55 0.6 6.55-0.38 3.55-1.35 1.5-2.95L1.5-2.95 3.9-6.95Q5.7-5.45 7.95-4.5 10.2-3.55 13.2-3.55L13.2-3.55Q16.8-3.55 18.9-5.05 21-6.55 21-9.1L21-9.1Q21-10.55 20.4-11.68 19.8-12.8 18.07-13.88 16.35-14.95 13-16.2L13-16.2Q9.4-17.6 7.25-19.03 5.1-20.45 4.17-22.28 3.25-24.1 3.25-26.6L3.25-26.6Q3.25-29.1 4.63-31.13 6-33.15 8.68-34.38 11.35-35.6 15.15-35.6L15.15-35.6Q18.25-35.6 20.73-34.98 23.2-34.35 25.55-33.2L25.55-33.2 23.8-29.15Q22.1-30.15 19.83-30.83 17.55-31.5 15.05-31.5L15.05-31.5Q11.75-31.5 9.85-30.2 7.95-28.9 7.95-26.85L7.95-26.85Q7.95-25.55 8.5-24.55 9.05-23.55 10.68-22.6 12.3-21.65 15.55-20.45L15.55-20.45Q19.45-19 21.73-17.4 24-15.8 24.95-13.93 25.9-12.05 25.9-9.65L25.9-9.65Q25.9-6.4 24.28-4.1 22.65-1.8 19.78-0.6 16.9 0.6 13.2 0.6ZM44.85 0.6L44.85 0.6Q40.8 0.6 37.65-1.5 34.5-3.6 32.7-7.48 30.9-11.35 30.9-16.6L30.9-16.6Q30.9-22.2 32.8-26.48 34.7-30.75 38.27-33.18 41.85-35.6 46.9-35.6L46.9-35.6Q50.15-35.6 52.7-34.8 55.25-34 57.5-32.75L57.5-32.75 55.75-28.8Q53.65-29.95 51.47-30.7 49.3-31.45 46.65-31.45L46.65-31.45Q43.5-31.45 41.05-29.78 38.6-28.1 37.17-24.85 35.75-21.6 35.75-16.9L35.75-16.9Q35.75-12.7 37.05-9.73 38.35-6.75 40.65-5.15 42.95-3.55 45.95-3.55L45.95-3.55Q48.75-3.55 50.92-4.73 53.1-5.9 54.35-7.15L54.35-7.15 54.35-14.8 47.1-14.8 47.1-18.55 58.85-18.55 58.85 0 54.65 0 54.65-3.5Q52.9-1.95 50.4-0.68 47.9 0.6 44.85 0.6ZM71.09 0L66.59 0 66.59-35 73.25-35 82.95-12.85 92.5-35 99.3-35 99.3 0 94.55 0 94.55-28.95 85.2-7.9 80.5-7.9 71.09-28.95 71.09 0ZM136.69-1.25L132.34 0.5 128.44-9.5 112.24-9.5 108.34 0.4 104.29-1.25 117.99-35 123.19-35 136.69-1.25ZM120.34-30.3L113.74-13.5 126.89-13.5 120.34-30.3ZM166.54-1.5L162.09 0.6 157.74-8.9Q156.09-12.45 153.59-13.95 151.09-15.45 147.19-15.45L147.19-15.45 146.44-15.45 146.44 0 141.69 0 141.69-34.9Q144.34-35.15 146.77-35.27 149.19-35.4 151.94-35.4L151.94-35.4Q158.34-35.4 161.57-32.8 164.79-30.2 164.79-26.1L164.79-26.1Q164.79-22.45 162.62-20.23 160.44-18 156.34-16.9L156.34-16.9Q157.69-16.3 158.74-15.48 159.79-14.65 160.77-13.28 161.74-11.9 162.74-9.7L162.74-9.7 166.54-1.5ZM146.44-31.2L146.44-19.45 151.94-19.45Q155.54-19.45 157.79-21.05 160.04-22.65 160.04-25.65L160.04-25.65Q160.04-28.15 157.94-29.78 155.84-31.4 151.94-31.4L151.94-31.4Q150.24-31.4 148.89-31.35 147.54-31.3 146.44-31.2L146.44-31.2ZM182.54 0L177.79 0 177.79-30.8 167.04-30.8 167.04-35 193.29-35 193.29-30.8 182.54-30.8 182.54 0Z" opacity="1" transform="matrix(1,0,0,1,0,0)" fill="#000000" class="wordmark-text-0" data-fill-palette-color="primary" id="text-0"></path></svg></g></svg></g></svg></g></svg></g><g transform="matrix(1,0,0,1,190.2564737367053,0)"><svg viewBox="0 0 16.984652526589354 103.16596855057354" height="103.16596855057354" width="16.984652526589354"><g><svg xmlns="http://www.w3.org/2000/svg" xmlns:xlink="http://www.w3.org/1999/xlink" xmlns:a="http://ns.adobe.com/AdobeSVGViewerExtensions/3.0/" version="1.1" x="0" y="0" viewBox="-0.00030222222222223 0.0028345179051471985 14.414302222222222 87.55348085032941" overflow="visible" enable-background="new -43.529 -5.013 100 100" xml:space="preserve" height="103.16596855057354" width="16.984652526589354" class="icon-icon-0" data-fill-palette-color="accent" id="icon-0"><path d="M12.56 59.682C12.465 58.714 12.372 57.746 12.278 56.777L10.786 41.394 10.784 41.388V41.39L10.765 41.041 10.784 41.382C10.107 29.328 9.437 17.219 9.649 5.142A115 115 0 0 1 9.798 0.776 10 10 0 0 0 9.217 0.536 9 9 0 0 0 8.14 0.203 6.7 6.7 0 0 0 5.782 0.043 5 5 0 0 0 4.307 0.45C4.173 0.513 3.825 0.634 3.747 0.776 3.821 2.113 3.864 3.452 3.89 4.791 3.975 9.139 3.903 13.489 3.787 17.834 3.536 27.287 3.05 36.733 2.482 46.171A1221 1221 0 0 1 1.655 58.849C1.633 59.16 1.438 60.029 1.886 60.119 2.155 60.173 2.487 60.12 2.758 60.119L4.96 60.109C6.457 60.104 7.953 60.1 9.451 60.103 7.317 54.21 7.908 9.69 7.934 7.763A0.4 0.4 0 0 1 8.343 7.365 0.403 0.403 0 0 1 8.74 7.774C8.511 24.332 8.542 56.561 10.292 60.03A0.4 0.4 0 0 1 10.319 60.104C10.79 60.114 12.621 60.306 12.56 59.682M10.751 40.809L10.744 40.689C10.747 40.73 10.75 40.77 10.751 40.809M10.744 40.666L10.734 40.493zM10.729 40.402L10.722 40.278zM10.716 40.173L10.709 40.072zM10.708 40.031L10.697 39.827zM10.653 39.055L10.643 38.869zM10.633 38.713C10.632 38.672 10.628 38.632 10.626 38.592 10.628 38.632 10.632 38.672 10.633 38.713M10.615 38.375C10.606 38.207 10.596 38.046 10.589 37.895 10.596 38.053 10.606 38.213 10.615 38.375M10.556 37.339L10.548 37.197zM10.531 36.885L10.496 36.259zM10.495 36.238L10.49 36.152zM10.488 36.106C10.487 36.084 10.484 36.064 10.484 36.043 10.484 36.064 10.487 36.084 10.488 36.106M10.482 36.015C10.481 35.997 10.481 35.98 10.479 35.963 10.481 35.979 10.481 35.997 10.482 36.015M10.476 35.894C10.476 35.893 10.476 35.892 10.474 35.891 10.476 35.891 10.476 35.893 10.476 35.894M10.47 35.795L10.466 35.749z" fill="#283132" data-fill-palette-color="accent"></path><path d="M12.755 61.825C12.711 61.062 12.576 60.929 12.576 60.929 12.042 60.875 11.264 60.848 10.366 60.84A0.5 0.5 0 0 1 10.402 61.019V86.165C10.402 86.424 10.192 86.634 9.931 86.634S9.46 86.424 9.46 86.165V61.019C9.46 60.955 9.473 60.892 9.496 60.837 5.995 60.846 1.37 61.063 1.37 61.063L0.026 85.403C-0.243 87.33 1.64 87.285 1.64 87.285 3.567 87.868 11.814 87.33 11.814 87.33L12.935 87.195C14.235 86.97 14.414 86.119 14.414 86.119z" fill="#283132" data-fill-palette-color="accent"></path></svg></g></svg></g><g></g></svg></g><defs></defs></svg><rect width="395.52" height="234.1664233742069" fill="none" stroke="none" visibility="hidden"></rect></g></svg></g></svg>